<?xml version="1.0" standalone="no"?><!DOCTYPE svg PUBLIC "-//W3C//DTD SVG 1.1//EN" "http://www.w3.org/Graphics/SVG/1.1/DTD/svg11.dtd"><svg t="1556435724024" class="icon" style="" viewBox="0 0 1024 1024" version="1.1" xmlns="http://www.w3.org/2000/svg" p-id="7574" xmlns:xlink="http://www.w3.org/1999/xlink" width="200" height="200"><defs><style type="text/css"></style></defs><path d="M862 105.5c10-10 26.8-10 36.8 0l53.7 53.7c10 10 10 26.8 0 36.8L495.7 652.8l-90.5-90.5L862 105.5m-45.3-45.2l-502 502 181 181 502-502c35-35 35-92.3 0-127.3L944 60.3c-35-35.1-92.3-35.1-127.3 0z" fill="" p-id="7575"></path><path d="M497 742c-4 4-9 7-14.8 8.5l-176.5 47.3c-12.8 3.4-26.5-0.3-35.9-9.6-9.4-9.4-13-23.1-9.6-35.9l47.3-176.5c4.7-17.6 22.8-28.1 40.5-23.4 17.6 4.7 28.1 22.8 23.4 40.5l-34.3 128.2 128.2-34.3c17.6-4.7 35.7 5.7 40.5 23.4 3 11.7-0.7 23.7-8.8 31.8zM731.315 164l45.255-45.254L939.203 281.38l-45.255 45.255z" fill="" p-id="7576"></path><path d="M868.6 990H155.4C69.7 990 0 920.3 0 834.6V186C0 102.2 68.2 34 152 34h458.1c17.7 0 32 14.3 32 32s-14.3 32-32 32H152c-48.5 0-88 39.5-88 88v648.6c0 50.4 41 91.4 91.4 91.4h713.2c50.4 0 91.4-41 91.4-91.4V417.1c0-17.7 14.3-32 32-32s32 14.3 32 32v417.5c0 85.7-69.7 155.4-155.4 155.4z" fill="" p-id="7577"></path></svg>