<?xml version="1.0" standalone="no"?><!DOCTYPE svg PUBLIC "-//W3C//DTD SVG 1.1//EN" "http://www.w3.org/Graphics/SVG/1.1/DTD/svg11.dtd"><svg t="1558008979744" class="icon" style="" viewBox="0 0 1024 1024" version="1.1" xmlns="http://www.w3.org/2000/svg" p-id="2832" xmlns:xlink="http://www.w3.org/1999/xlink" width="16" height="16"><defs><style type="text/css"></style></defs><path d="M862.17646484 847.0390625L756.35966797 741.09746094c27.51416016-37.42294922 43.79853516-83.60771484 43.79853515-133.53398438 0-124.47421875-101.14980469-225.74707031-225.47460937-225.74707031S349.21337891 483.08925781 349.21337891 607.56347656c0 124.47597656 101.14541016 225.74707031 225.47021484 225.74707032 49.86650391 0 95.99589844-16.30371094 133.37402344-43.85126954l105.81767578 105.94160157c6.67089844 6.67353516 15.40898438 10.01337891 24.15146484 10.0133789s17.4796875-3.33984375 24.15058594-10.01425781c13.33652344-13.35761719 13.33652344-35.00859375-0.00087891-48.3609375zM574.68359375 777.74521484c-93.72480469 0-169.97167969-76.34443359-169.97167969-170.18173828 0-93.83730469 76.246875-170.18085938 169.97167969-170.18085937 93.72392578 0 169.97607422 76.34267578 169.97607422 170.18085937 0 93.83818359-76.25214844 170.18173828-169.97607422 170.18173828z" p-id="2833"></path><path d="M282.79443359 616.90976563c0-159.33515625 129.00585938-288.50273437 288.14414063-288.50273438 97.453125 0 183.60703125 48.43916016 235.75429687 122.58369141V171.12851562c0-28.99335938-23.4984375-52.54101563-52.48388672-52.54101562H204.30371094c-28.98369141 0-52.48300781 23.52216797-52.48300781 52.54013672v681.74296875c0 28.99511719 23.49755859 52.54277344 52.48388671 52.54277344h366.63398438c-159.13740234 0-288.14414062-129.16757813-288.14414063-288.50361328z m-26.19404297-393.4125c0-14.48525391 11.728125-26.22744141 26.19492188-26.22744141h392.92382813c14.46679688 0 26.19492187 11.7421875 26.19492187 26.2265625s-11.72724609 26.22832031-26.19492188 26.22832031h-392.92382812c-14.46679688 0-26.19492187-11.74306641-26.19492187-26.2274414z" p-id="2834"></path></svg>