<?xml version="1.0" standalone="no"?><!DOCTYPE svg PUBLIC "-//W3C//DTD SVG 1.1//EN" "http://www.w3.org/Graphics/SVG/1.1/DTD/svg11.dtd"><svg t="1557911399903" class="icon" style="" viewBox="0 0 1024 1024" version="1.1" xmlns="http://www.w3.org/2000/svg" p-id="2949" xmlns:xlink="http://www.w3.org/1999/xlink" width="16" height="16"><defs><style type="text/css"></style></defs><path d="M256.357 0.72h255.607v42.606H404.149v42.602h107.815v42.607H257.246l-0.889 681.715h511.28V128.53H512.037V85.933h107.815l-2.666-42.602H512.041V0.72h255.592c47.07 0 85.22 38.16 85.22 85.21V938.06c0 47.06-38.15 85.215-85.215 85.215H256.357c-47.06 0-85.21-38.154-85.21-85.215V85.928c0-47.05 38.15-85.209 85.215-85.209zM512 874.147a42.602 42.602 0 1 1 0 85.21 42.602 42.602 0 1 1 0-85.21z" p-id="2950"></path></svg>