<?xml version="1.0" standalone="no"?><!DOCTYPE svg PUBLIC "-//W3C//DTD SVG 1.1//EN" "http://www.w3.org/Graphics/SVG/1.1/DTD/svg11.dtd"><svg t="1556436408726" class="icon" style="" viewBox="0 0 1024 1024" version="1.1" xmlns="http://www.w3.org/2000/svg" p-id="11852" xmlns:xlink="http://www.w3.org/1999/xlink" width="200" height="200"><defs><style type="text/css"></style></defs><path d="M512 691.2c-19.2 0-32-12.8-32-32v-512c0-19.2 12.8-32 32-32s32 12.8 32 32v512c0 19.2-12.8 32-32 32z" fill="#2c2c2c" p-id="11853"></path><path d="M742.4 371.2c-6.4 0-19.2 0-25.6-6.4L537.6 185.6c-6.4-6.4-12.8-12.8-25.6-12.8-6.4 0-19.2 6.4-19.2 6.4L313.6 364.8c-12.8 12.8-32 12.8-44.8 0-12.8-12.8-12.8-32-6.4-44.8L448 134.4c19.2-12.8 38.4-25.6 64-25.6s51.2 12.8 70.4 25.6L761.6 320c12.8 12.8 12.8 32 0 44.8-6.4 6.4-12.8 6.4-19.2 6.4zM870.4 915.2H153.6c-51.2 0-89.6-44.8-89.6-96V467.2c0-19.2 12.8-32 32-32s32 12.8 32 32v352c0 19.2 12.8 32 25.6 32h710.4c12.8 0 25.6-12.8 25.6-32V467.2c0-19.2 12.8-32 32-32s38.4 12.8 38.4 32v352c0 51.2-38.4 96-89.6 96z" fill="#2c2c2c" p-id="11854"></path></svg>