<?xml version="1.0" standalone="no"?><!DOCTYPE svg PUBLIC "-//W3C//DTD SVG 1.1//EN" "http://www.w3.org/Graphics/SVG/1.1/DTD/svg11.dtd"><svg t="1556435762869" class="icon" style="" viewBox="0 0 1024 1024" version="1.1" xmlns="http://www.w3.org/2000/svg" p-id="8742" xmlns:xlink="http://www.w3.org/1999/xlink" width="200" height="200"><defs><style type="text/css"></style></defs><path d="M898.6 225.3c-0.9-5.9-4.8-11-10.4-13.2l-367-146.6c-4-1.6-8.5-1.6-12.4 0L142 212.1c-5.1 2.1-8.9 6.5-10.1 11.9-1.2 5.3-112 533.9 376.7 734.4 2 0.8 4.2 1.3 6.4 1.3 1.9 0 3.8-0.3 5.7-1C974.7 795 899.3 231 898.6 225.3zM515.3 925C87.3 745.1 150 308.8 162.9 239.9L515 99.1l351.5 140.4c7.4 72.6 39.1 539.8-351.2 685.5z" fill="" p-id="8743"></path><path d="M537 520.5V409.7h32.7c9.2 0 16.7-7.5 16.7-16.8 0-9.2-7.5-16.7-16.7-16.7H537v-50h32.7c9.2 0 16.7-7.5 16.7-16.8s-7.5-16.8-16.7-16.8h-49.4c-9.3 0-16.8 7.5-16.8 16.8v211.1c-40.8 7.8-71.6 43.8-71.6 86.8 0 48.7 39.7 88.4 88.4 88.4s88.4-39.7 88.4-88.4c-0.1-43-30.9-78.9-71.7-86.8z m-16.8 141.7c-30.3 0-54.9-24.6-54.9-54.9 0-30.3 24.6-54.9 54.9-54.9 30.3 0 54.9 24.6 54.9 54.9 0 30.3-24.6 54.9-54.9 54.9z" fill="" p-id="8744"></path></svg>