<?xml version="1.0" standalone="no"?><!DOCTYPE svg PUBLIC "-//W3C//DTD SVG 1.1//EN" "http://www.w3.org/Graphics/SVG/1.1/DTD/svg11.dtd"><svg t="1558008896362" class="icon" style="" viewBox="0 0 1024 1024" version="1.1" xmlns="http://www.w3.org/2000/svg" p-id="2041" xmlns:xlink="http://www.w3.org/1999/xlink" width="16" height="16"><defs><style type="text/css"></style></defs><path d="M666.5 647.5l-96.3 312h303.7c13 0 22.9-12 20.8-25.3-9-56.9-46.2-198.1-196.8-298.5-11.6-7.7-27.2-1.9-31.4 11.8z" p-id="2042"></path><path d="M873.9 960H569.5l0.2-0.6 96.3-312c2.1-6.8 7-12 13.5-14.3 6.3-2.2 13.1-1.4 18.6 2.3 151 100.6 188.1 242.5 197 298.8 1 6.6-0.8 13.3-5.1 18.3-4 4.7-9.9 7.5-16.1 7.5z m-303-1H874c5.9 0 11.5-2.6 15.4-7.2 4.1-4.8 5.9-11.2 4.9-17.5-8.9-56.2-46-197.8-196.6-298.1-5.3-3.5-11.8-4.3-17.7-2.2-6.2 2.2-10.9 7.2-12.9 13.6l-0.5-0.1 0.5 0.1L570.9 959zM204.1 959.1c-15.3 0-28.4-11.7-29.8-27.3l-35.8-391.2c-1.5-16.5 10.6-31.1 27.1-32.6s31.1 10.6 32.6 27.1L234 926.4c1.5 16.5-10.6 31.1-27.1 32.6-0.9 0.1-1.9 0.1-2.8 0.1zM333.7 381.1c0.9 5.2 2 10.4 3.2 15.6 0.9 4.1 2.3 8.1 3.3 12.1 2.5 9.7 6.7 18.6 15.2 25.4 1.1 0.9 2.1 2.3 2.2 3.5 0.8 7.4 3.1 14.5 5.1 21.6 4.1 15.2 10.6 29.5 18.4 43.3 7 12.5 15.2 24.4 24.5 35.8 15.1 18.4 32.3 34.8 52.8 48.4 17.5 11.6 36.5 20.6 58.2 24.6 8.1 1.5 16.1 2.1 24.3 2 7-0.1 14-1.2 20.8-2.8 3.6-0.9 7.4-1.4 10.9-2.5 10.9-3.3 21.4-7.4 31.3-12.6 14.8-7.7 28.1-17.2 40.5-27.7 11.1-9.5 21.1-19.9 30-31 9-11.2 17.5-22.8 24.1-35.3 4.5-8.5 9.3-16.9 12.9-25.7 5.9-14.4 11-29.1 12.8-44.5 0.2-1.4 1.1-3 2.3-4 4.6-3.8 7.7-8.5 10.2-13.5 2.8-5.4 3.5-11.3 5-17 0.9-3.5 1.7-7.1 2.4-10.6 1-5.2 2.1-10.5 2.7-15.7 0.6-6 1.5-11.9-0.8-17.9-2.6-6.9-3.8-8.1-11.7-8.8 0.3-1 0.5-1.9 0.8-2.8 2.5-8.9 5.5-17.8 7.5-26.8 1.8-7.9 2.8-16 3.6-24.1 0.9-9.2 1.5-18.5 1.6-27.7 0.1-5.4-0.9-10.9-1.5-16.4-0.4-3.8-0.7-7.6-1.6-11.2-1.9-7.2-3.8-14.4-6.4-21.4-1.8-5-4.5-9.8-7-14.6-4.3-8.3-10.2-15.8-16.9-22.6-4.8-4.9-9.6-9.7-15-14-17.2-13.7-37.3-23.3-58.7-30.6-14.7-5-29.9-8.8-45-13.1-5.1-1.4-10-3.1-14-6.5-1.1-1-2.5-1.7-3.7-2.6-13.4-10.2-24.6-21.6-26.5-38.7-3.4 1.9-6.5 3.5-9.5 5.2-3 1.7-5.1 4.7-9.2 5.6 2-5 5.9-9.7 10.3-13.4 1.5-1.3 2.6-3 4-4.6-1.3 0-2.5 0-3.8 0.1-0.6 0.8-1.2 1.6-1.9 2.3-3.8 3.1-7.7 6.3-11.6 9.3-2.6 2-5.2 4-8 5.9-6 4.2-11.9 8.5-16 14.3-2.7 3.8-15.2 8.4-19.6 8.1-5.7-0.4-11.3 0.7-16.7 2.3-7.8 2.2-15.2 5.3-22.4 8.8-16.2 7.9-31.5 17.1-45.8 27.6-15.1 11.1-28.2 23.9-39.2 38.2-7.1 9.2-13.2 19.1-17.3 29.7-2.4 6.2-5.2 12.4-6.4 18.8-1.5 7.4-1.7 15-2 22.6-0.3 5.2 0.1 10.4 0.2 15.6 0.2 7.7-0.1 15.5 1.5 23.1 0.8 4 0.9 8.1 1.4 12.1 0.7 5.4 1.1 10.9 2.1 16.2 1.8 9.6 4.1 19.2 6.1 28.7 0.2 1.2 0.1 2.4 0.1 4-2.1 0-3.8 0.1-5.5 0.1-3.4 0-6 1.4-7.1 4.1-2 4.8-3.8 9.7-2.7 15.1 0.5 3.7 0.6 7.2 1.2 10.6z m0 0" p-id="2043"></path><path d="M407.5 646.2l96.3 312H200c-13 0-22.9-12-20.8-25.3 9-56.9 46.2-198.1 196.8-298.5 11.7-7.6 27.3-1.8 31.5 11.8z" p-id="2044"></path><path d="M504.4 958.8H200c-6.2 0-12.1-2.7-16.2-7.5-4.3-5-6.1-11.7-5.1-18.3 8.9-56.3 46.1-198.2 197-298.8 5.6-3.7 12.3-4.6 18.6-2.3 6.5 2.3 11.4 7.5 13.5 14.3l96.6 312.6z m-117-327.2c-3.9 0-7.7 1.1-11 3.4-150.7 100.3-187.7 241.9-196.7 298.1-1 6.3 0.8 12.7 4.9 17.5 3.9 4.6 9.5 7.2 15.4 7.2h303.1L407 646.4c-2-6.5-6.7-11.4-12.9-13.6-2.2-0.8-4.5-1.2-6.7-1.2z" p-id="2045"></path><path d="M514.1 630.9h48.1c7.2 0 12 7.7 9 14.5l-18.6 42.3c-0.9 2-1.1 4.3-0.6 6.5L589.8 866c0.6 2.8 0.1 5.7-1.5 8l-42 63.7c-3.9 6-12.4 6-16.4 0L488 874c-1.5-2.3-2.1-5.3-1.5-8l37.8-172c0.5-2.2 0.3-4.5-0.6-6.5l-18.5-42.2c-3-6.7 1.7-14.4 8.9-14.4z" p-id="2046"></path></svg>