<?xml version="1.0" standalone="no"?><!DOCTYPE svg PUBLIC "-//W3C//DTD SVG 1.1//EN" "http://www.w3.org/Graphics/SVG/1.1/DTD/svg11.dtd"><svg t="1556435833706" class="icon" style="" viewBox="0 0 1024 1024" version="1.1" xmlns="http://www.w3.org/2000/svg" p-id="11057" xmlns:xlink="http://www.w3.org/1999/xlink" width="200" height="200"><defs><style type="text/css"></style></defs><path d="M532.166961 44.547913c-12.641975-6.621987-27.691946-4.815991-38.527925 4.815991C493.037037 49.363904 439.459142 93.309818 381.065256 138.45973c-102.3398 78.259847-132.439741 91.503821-138.45973 93.911817L97.52381 232.371546c-0.601999 0-1.203998 0-2.407995 0L30.099941 232.371546c-16.253968 0-30.099941 13.845973-30.099941 31.303939l0 496.64903c0 16.855967 13.243974 31.303939 30.099941 31.303939l236.585538 0c6.019988 2.407995 34.313933 15.651969 124.613757 92.707819 52.975897 45.149912 100.533804 88.493827 100.533804 89.095826 6.621987 6.019988 15.651969 9.631981 24.079953 9.631981 4.815991 0 10.23398-1.203998 15.049971-3.009994 13.243974-6.019988 21.671958-19.865961 21.671958-34.313933L552.634921 78.861846C552.634921 63.811875 544.808936 51.1699 532.166961 44.547913zM850.624339 511.699001c0-96.319812-49.965902-180.599647-125.215755-225.749559-3.611993-1.805996-11.437978-5.417989-16.855967-5.417989-16.253968 0-30.099941 13.845973-30.099941 31.303939 0 11.437978 6.019988 21.671958 15.049971 27.089947 57.791887 34.313933 96.921811 98.727807 96.921811 172.773663 0 75.249853-40.333921 140.867725-99.931805 174.579659-8.427984 5.417989-14.447972 15.651969-14.447972 27.089947 0 17.457966 13.243974 31.303939 30.099941 31.303939 7.223986 0 15.049971-4.213992 15.049971-4.213992C798.250441 695.308642 850.624339 609.824809 850.624339 511.699001zM812.096414 127.623751c-5.417989-3.611993-10.835979-6.621987-18.059965-6.621987-16.253968 0-30.099941 13.845973-30.099941 31.303939 0 12.039976 7.223986 22.273956 16.855967 28.293945 109.563786 66.821869 183.609641 190.231628 183.609641 332.303351 0 73.443857-19.865961 141.469724-54.179894 199.86361-7.223986 12.039976-5.417989 27.089947 4.213992 36.721928 0 0 0 0 0.601999 0.601999 13.845973 13.243974 36.721928 10.835979 46.353909-6.019988 39.731922-67.423868 62.607878-146.285714 62.607878-231.167549C1024 348.557319 938.516167 205.281599 812.096414 127.623751zM894.570253 792.832451c-10.835979-13.845973-31.905938-15.049971-43.945914-2.407995-21.069959 21.069959-43.945914 39.129924-69.229865 54.179894-9.631981 5.417989-18.059965 15.651969-18.059965 28.293945 0 17.457966 13.243974 31.303939 30.099941 31.303939 6.621987 0 12.039976-2.407995 17.457966-6.019988 29.497942-18.059965 57.189888-39.731922 81.269841-64.413874C903.600235 822.932393 904.804233 805.474427 894.570253 792.832451 895.172252 793.43445 894.570253 793.43445 894.570253 792.832451z" p-id="11058"></path><path d="M247.421517 288.959436c-33.711934 6.019988-97.52381 24.681952-139.663727 79.463845-7.223986 9.029982-5.417989 22.273956 3.611993 29.497942 0 0 0 0 0.601999 0 9.029982 7.223986 21.671958 5.417989 28.895944-3.009994 23.477954-28.895944 51.771899-56.587889 111.971781-64.413874 10.23398-1.203998 17.457966-9.631981 17.457966-19.263962l0-3.009994C270.297472 296.183422 259.461493 287.153439 247.421517 288.959436z" p-id="11059"></path><path d="M102.941799 425.01117C102.941799 425.01117 102.941799 425.01117 102.941799 425.01117c-12.039976-5.417989-25.885949 0.601999-29.497942 12.641975-2.407995 9.631981-4.815991 19.263962-6.019988 30.099941-1.805996 12.039976 7.223986 22.875955 19.263962 22.875955l3.611993 0c10.23398 0 18.661964-7.825985 19.263962-17.457966 0.601999-7.825985 1.805996-13.243974 4.213992-24.079953C116.787772 439.459142 111.971781 429.82716 102.941799 425.01117z" p-id="11060"></path></svg>