<?xml version="1.0" standalone="no"?><!DOCTYPE svg PUBLIC "-//W3C//DTD SVG 1.1//EN" "http://www.w3.org/Graphics/SVG/1.1/DTD/svg11.dtd"><svg t="1557909881182" class="icon" style="" viewBox="0 0 1024 1024" version="1.1" xmlns="http://www.w3.org/2000/svg" p-id="2024" xmlns:xlink="http://www.w3.org/1999/xlink" width="16" height="16"><defs><style type="text/css"></style></defs><path d="M1001 134.7c-18.9-23.3-48-37.8-80-37.8H103.2c-31.9 0-60.4 14.5-79.3 37.5l481.9 460.4L1001 134.7z" p-id="2025"></path><path d="M520.9 652.4c-9 7.3-22.4 7.3-31.7-0.3l-97.5-87.6-357.3 348c17.8 14.3 40.4 18.9 65.2 18.9l824.9 0.9c24.4 0 47.1-5.3 64.9-19.5L632 565.4l-111.1 87zM1.5 178.6C0.6 184.1 0 190 0 195.8v636.7c0 13.1 2.6 25.6 7 37.2l344.5-335.8-350-355.3zM673 533.6l344 336.1c4.7-11.6 7-24.1 7-37.2V195.8c0-5.8-0.6-11.4-1.5-16.9L673 533.6z" p-id="2026"></path></svg>